<!--?xml version="1.0" encoding="utf-8"?-->
<!-- Generator: Adobe Illustrator 17.0.0, SVG Export Plug-In . SVG Version: 6.00 Build 0)  -->

<svg version="1.1" id="Layer_1" xmlns="http://www.w3.org/2000/svg" xmlns:xlink="http://www.w3.org/1999/xlink" x="0px" y="0px" width="871.898px" height="861.883px" viewBox="0 0 871.898 861.883" enable-background="new 0 0 871.898 861.883" xml:space="preserve">
<g>
	<path fill="none" stroke="#FFFFFF" stroke-width="8" stroke-miterlimit="10" d="M581.791,434.282L581.791,434.282
		c-38.965,0-75.564-15.168-103.118-42.583c-56.917-57.056-56.917-149.597,0-206.653c39.522-39.521,92.194-61.23,148.206-61.23
		c31.102,0,62.274,6.958,90.245,20.178c1.948,0.974,3.688,2.227,5.219,3.757s2.853,3.34,3.757,5.288
		c37.991,80.156,21.5,176.038-41.052,238.52C657.494,419.113,620.826,434.282,581.791,434.282z M626.879,159.44
		c-46.479,0-90.176,18.091-123.018,50.933c-43.07,43-43.07,112.998,0,155.999c20.804,20.874,48.497,32.285,77.93,32.285l0,0
		c29.502,0,57.195-11.411,78.069-32.285c50.515-50.515,64.849-127.192,36.53-192.598C674.611,164.311,650.676,159.44,626.879,159.44
		z" class="vgiMmSgv_0"></path>
</g>
<path fill="none" stroke="#FFFFFF" stroke-width="8" stroke-miterlimit="10" d="M593.411,677.255L401.672,485.484l57.287-57.232
	c6.958-6.958,6.958-18.23,0-25.188s-18.23-7.097-25.188-0.139l-57.354,57.299L184.628,268.403c-13.916-13.916-36.46-13.916-50.376,0
	c-13.916,13.916-13.916,36.46,0,50.376l408.783,408.853c6.958,6.958,16.073,10.437,25.188,10.437s18.23-3.479,25.188-10.437
	C607.327,713.715,607.327,691.171,593.411,677.255z" class="vgiMmSgv_1"></path>
<g>
	<path fill="none" stroke="#FFFFFF" stroke-width="8" stroke-miterlimit="10" d="M545.749,333.947
		c-4.592,0-9.115-1.809-12.594-5.288c-6.958-6.958-6.958-18.23,0-25.188l82.592-82.522c7.028-6.958,18.3-6.819,25.188,0.139
		c6.958,6.958,6.958,18.23,0,25.188l-82.592,82.522C554.864,332.277,550.272,333.947,545.749,333.947z" class="vgiMmSgv_2"></path>
</g>
<style>.vgiMmSgv_0{stroke-dasharray:1751 1753;stroke-dashoffset:1752;animation:vgiMmSgv_draw 1600ms ease-in 0ms forwards;}.vgiMmSgv_1{stroke-dasharray:1563 1565;stroke-dashoffset:1564;animation:vgiMmSgv_draw 1600ms ease-in 100ms forwards;}.vgiMmSgv_2{stroke-dasharray:346 348;stroke-dashoffset:347;animation:vgiMmSgv_draw 1600ms ease-in 200ms forwards;}@keyframes vgiMmSgv_draw{100%{stroke-dashoffset:0;}}@keyframes vgiMmSgv_fade{0%{stroke-opacity:1;}93.33333333333333%{stroke-opacity:1;}100%{stroke-opacity:0;}}</style></svg>
